<svg width="20" height="20" viewBox="0 0 20 20" fill="none" xmlns="http://www.w3.org/2000/svg">
<path fill-rule="evenodd" clip-rule="evenodd" d="M15.4422 8.7751C15.325 8.89214 15.1662 8.95789 15.0005 8.95789C14.8349 8.95789 14.6761 8.89214 14.5589 8.7751L10.6256 4.84177L10.6255 16.6668C10.6255 16.8325 10.5597 16.9915 10.4425 17.1087C10.3253 17.2259 10.1663 17.2918 10.0005 17.2918C9.83479 17.2918 9.67582 17.2259 9.55861 17.1087C9.4414 16.9915 9.37555 16.8325 9.37555 16.6668L9.37555 4.84177L5.44222 8.7751C5.385 8.83651 5.316 8.88576 5.23933 8.91992C5.16267 8.95408 5.0799 8.97245 4.99598 8.97393C4.91207 8.97541 4.82871 8.95997 4.75089 8.92854C4.67306 8.8971 4.60237 8.85032 4.54302 8.79097C4.48367 8.73162 4.43688 8.66092 4.40545 8.5831C4.37401 8.50528 4.35858 8.42192 4.36006 8.338C4.36154 8.25408 4.37991 8.17132 4.41407 8.09465C4.44823 8.01799 4.49748 7.94899 4.55888 7.89177L9.55888 2.89177C9.67607 2.77473 9.83492 2.70898 10.0006 2.70898C10.1662 2.70898 10.325 2.77473 10.4422 2.89177L15.4422 7.89177C15.5593 8.00896 15.625 8.16781 15.625 8.33344C15.625 8.49906 15.5593 8.65791 15.4422 8.7751Z" fill="#28EBA5"/>
</svg>
