<svg width="24" height="24" viewBox="0 0 24 24" fill="none" xmlns="http://www.w3.org/2000/svg">
<path fill-rule="evenodd" clip-rule="evenodd" d="M17.4881 19.57C17.3371 19.6992 17.1409 19.7631 16.9427 19.7478C16.7445 19.7324 16.5605 19.6389 16.4311 19.488L10.4311 12.488C10.3147 12.3521 10.2507 12.179 10.2507 12C10.2507 11.821 10.3147 11.6479 10.4311 11.512L16.4311 4.51198C16.5626 4.3684 16.7448 4.28157 16.9391 4.26985C17.1335 4.25814 17.3247 4.32245 17.4725 4.44919C17.6203 4.57594 17.713 4.75518 17.731 4.94903C17.7491 5.14289 17.691 5.33615 17.5691 5.48798L11.9881 12L17.5691 18.512C17.6986 18.6628 17.7629 18.8588 17.7479 19.057C17.7329 19.2552 17.6398 19.4394 17.4891 19.569M13.4891 19.569C13.4143 19.6331 13.3276 19.6819 13.2339 19.7125C13.1402 19.743 13.0414 19.7549 12.9431 19.7472C12.8449 19.7396 12.7491 19.7127 12.6612 19.6681C12.5734 19.6234 12.4952 19.5619 12.4311 19.487L6.43113 12.487C6.31467 12.3511 6.25066 12.178 6.25066 11.999C6.25066 11.82 6.31467 11.6469 6.43113 11.511L12.4311 4.51098C12.5606 4.35981 12.7447 4.26624 12.9431 4.25086C13.1416 4.23548 13.338 4.29955 13.4891 4.42898C13.6403 4.55841 13.7339 4.74258 13.7493 4.941C13.7646 5.13941 13.7006 5.33581 13.5711 5.48698L7.98713 12L13.5681 18.512C13.6975 18.6629 13.7616 18.8591 13.7464 19.0572C13.7312 19.2554 13.6379 19.4395 13.4871 19.569" fill="#525B64"/>
</svg>
