<svg width="14" height="14" viewBox="0 0 14 14" fill="none" xmlns="http://www.w3.org/2000/svg">
<g clip-path="url(#clip0_98_335)">
<path fill-rule="evenodd" clip-rule="evenodd" d="M8.71554 0.788086H6.49906C5.49464 0.788086 4.69898 0.788086 4.07656 0.871696C3.43609 0.958038 2.91749 1.13947 2.50819 1.54823C2.09943 1.95753 1.918 2.47613 1.83166 3.11659C1.74805 3.73957 1.74805 4.53468 1.74805 5.5391V8.84852C1.74806 9.33674 1.92234 9.80894 2.23951 10.1801C2.55668 10.5513 2.99592 10.797 3.47817 10.8732C3.55304 11.2907 3.69785 11.647 3.98748 11.9372C4.31646 12.2661 4.73068 12.4071 5.2225 12.4738C5.69629 12.5372 6.29905 12.5372 7.04607 12.5372H8.74559C9.49262 12.5372 10.0954 12.5372 10.5692 12.4738C11.061 12.4071 11.4752 12.2661 11.8042 11.9372C12.1332 11.6082 12.2742 11.194 12.3408 10.7021C12.4042 10.2284 12.4042 9.6256 12.4042 8.87857V6.08611C12.4042 5.33909 12.4042 4.73633 12.3408 4.26254C12.2742 3.77072 12.1332 3.35649 11.8042 3.02752C11.514 2.73789 11.1577 2.59308 10.7402 2.51821C10.6641 2.03596 10.4183 1.59672 10.0471 1.27955C9.67595 0.962375 9.20376 0.788099 8.71554 0.788086ZM9.87952 2.43897C9.79642 2.19634 9.63954 1.98576 9.43082 1.83672C9.2221 1.68768 8.97201 1.60763 8.71554 1.60779H6.52966C5.48754 1.60779 4.74762 1.60888 4.1853 1.6843C3.6361 1.75807 3.31915 1.89687 3.08799 2.12803C2.85683 2.35919 2.71803 2.67614 2.64426 3.22589C2.56884 3.78766 2.56775 4.52758 2.56775 5.5697V8.84852C2.5676 9.10499 2.64764 9.35508 2.79668 9.5638C2.94572 9.77252 3.1563 9.9294 3.39893 10.0125C3.38746 9.67915 3.38746 9.30209 3.38746 8.87857V6.08611C3.38746 5.33909 3.38746 4.73633 3.45139 4.26254C3.51697 3.77072 3.65905 3.35649 3.98748 3.02752C4.31646 2.69854 4.73068 2.55756 5.2225 2.49143C5.69629 2.4275 6.29905 2.4275 7.04607 2.4275H8.74559C9.16911 2.4275 9.54617 2.4275 9.87952 2.43897ZM4.56674 3.60787C4.71811 3.4565 4.93014 3.35813 5.3318 3.30403C5.74383 3.24884 6.2914 3.24775 7.07558 3.24775H8.71499C9.49918 3.24775 10.0462 3.24884 10.4593 3.30403C10.8604 3.35813 11.0725 3.45705 11.2238 3.60787C11.3752 3.75924 11.4736 3.97127 11.5277 4.37293C11.5829 4.78497 11.584 5.33253 11.584 6.11671V8.84906C11.584 9.63325 11.5829 10.1803 11.5277 10.5934C11.4736 10.9945 11.3747 11.2065 11.2238 11.3579C11.0725 11.5093 10.8604 11.6076 10.4588 11.6617C10.0462 11.7169 9.49918 11.718 8.71499 11.718H7.07558C6.2914 11.718 5.74383 11.7169 5.33125 11.6617C4.93014 11.6076 4.71811 11.5087 4.56674 11.3579C4.41537 11.2065 4.317 10.9945 4.2629 10.5928C4.20771 10.1803 4.20662 9.63325 4.20662 8.84906V6.11671C4.20662 5.33253 4.20771 4.78497 4.2629 4.37238C4.317 3.97127 4.41591 3.75924 4.56674 3.60787Z" fill="#98A2AC"/>
</g>
<defs>
<clipPath id="clip0_98_335">
<rect width="13.1153" height="13.1153" fill="white" transform="translate(0.517578 0.105469)"/>
</clipPath>
</defs>
</svg>
