<svg width="14" height="14" viewBox="0 0 14 14" fill="none" xmlns="http://www.w3.org/2000/svg">
<g clip-path="url(#clip0_98_343)">
<path fill-rule="evenodd" clip-rule="evenodd" d="M7.77411 1.41168C8.17476 1.01904 8.71418 0.800392 9.27514 0.80325C9.8361 0.806109 10.3733 1.03024 10.7699 1.42694C11.1665 1.82364 11.3906 2.36085 11.3933 2.92181C11.3961 3.48277 11.1773 4.02215 10.7846 4.42273L6.63472 8.57262C6.40083 8.80651 6.25766 8.94968 6.09918 9.07373C5.91152 9.21994 5.70849 9.34527 5.49369 9.44752C5.31117 9.53441 5.11936 9.59834 4.80569 9.70272L3.34552 10.1896L2.99469 10.3066C2.84077 10.358 2.67558 10.3655 2.51763 10.3283C2.35969 10.291 2.21524 10.2105 2.1005 10.0958C1.98575 9.98105 1.90525 9.8366 1.86802 9.67866C1.83079 9.52071 1.83831 9.35552 1.88972 9.2016L2.49357 7.3906C2.59795 7.07693 2.66189 6.88512 2.74877 6.7026C2.8512 6.48795 2.97672 6.28511 3.12311 6.09766C3.24715 5.93863 3.38978 5.79546 3.62367 5.56212L7.77411 1.41168ZM3.32585 9.33221L2.86463 8.8699L3.26246 7.67586C3.37831 7.32831 3.4264 7.18677 3.48869 7.05562C3.5652 6.89441 3.65974 6.74249 3.76903 6.60205C3.85865 6.48729 3.96358 6.38127 4.2226 6.1217L7.44186 2.90299C7.60913 3.3209 7.85999 3.70025 8.17905 4.01779C8.49663 4.33665 8.87598 4.58732 9.29384 4.75443L6.07459 7.97314C5.81502 8.23271 5.70955 8.33764 5.59479 8.42671C5.4541 8.53632 5.30204 8.63049 5.14122 8.7076C5.01007 8.76989 4.86798 8.81798 4.52043 8.93384L3.32585 9.33221ZM9.94688 4.10086C9.86268 4.08225 9.77966 4.05871 9.69823 4.03036C9.34414 3.90657 9.02276 3.70402 8.7583 3.43799C8.49236 3.17346 8.28983 2.8521 8.16593 2.49806C8.1374 2.41664 8.11368 2.33362 8.09489 2.24942L8.35337 1.99148C8.60024 1.75258 8.93111 1.62027 9.27464 1.62309C9.61817 1.6259 9.94683 1.76362 10.1898 2.00654C10.4327 2.24946 10.5704 2.57812 10.5732 2.92165C10.576 3.26518 10.4437 3.59605 10.2048 3.84292L9.94688 4.10086ZM1.84491 12.1274C1.84491 12.0187 1.88809 11.9145 1.96496 11.8376C2.04182 11.7607 2.14607 11.7176 2.25477 11.7176H10.9983V12.5373H2.25477C2.14607 12.5373 2.04182 12.4941 1.96496 12.4172C1.88809 12.3404 1.84491 12.2361 1.84491 12.1274Z" fill="#98A2AC"/>
</g>
<defs>
<clipPath id="clip0_98_343">
<rect width="13.1153" height="13.1153" fill="white" transform="translate(0.0683594 0.105469)"/>
</clipPath>
</defs>
</svg>
