<svg width="20" height="20" viewBox="0 0 20 20" fill="none" xmlns="http://www.w3.org/2000/svg">
<path fill-rule="evenodd" clip-rule="evenodd" d="M0.833008 16.8667C0.833008 16.5167 1.11967 16.2333 1.47217 16.2333H18.5272C18.8797 16.2333 19.1663 16.5167 19.1663 16.8667C19.1663 17.2167 18.8797 17.5 18.5272 17.5H1.47217C1.30346 17.5007 1.14139 17.4343 1.02154 17.3156C0.9017 17.1968 0.83389 17.0354 0.833008 16.8667ZM3.07468 3.24167C2.32467 3.98333 2.32467 5.17833 2.32467 7.56667V11.7892C2.32467 13.3808 2.32467 14.1775 2.82468 14.6725C3.32468 15.1667 4.12801 15.1667 5.73634 15.1667H14.263C15.8713 15.1667 16.6755 15.1667 17.1747 14.6717C17.6747 14.1775 17.6747 13.3808 17.6747 11.7883V7.56667C17.6747 5.17833 17.6747 3.98333 16.9247 3.24167C16.1755 2.5 14.9697 2.5 12.558 2.5H7.44134C5.02968 2.5 3.82384 2.5 3.07468 3.24167ZM6.80218 12.6333C6.80218 12.2833 7.08801 12 7.44134 12H12.558C12.9113 12 13.1972 12.2833 13.1972 12.6333C13.1972 12.9833 12.9113 13.2667 12.558 13.2667H7.44134C7.27263 13.2673 7.11055 13.201 6.99071 13.0823C6.87087 12.9635 6.80306 12.802 6.80218 12.6333Z" fill="#525B64"/>
</svg>
