<svg width="20" height="20" viewBox="0 0 20 20" fill="none" xmlns="http://www.w3.org/2000/svg">
<path fill-rule="evenodd" clip-rule="evenodd" d="M7.40575 2.80262C9.85742 0.455117 13.8224 0.455117 16.2749 2.80262C18.7424 5.16428 18.7424 9.00595 16.2749 11.3685L9.65159 17.7085C7.90992 19.3751 5.09658 19.3751 3.35492 17.7085C2.93873 17.3166 2.6071 16.8437 2.38043 16.3189C2.15375 15.7941 2.03682 15.2284 2.03682 14.6568C2.03682 14.0851 2.15375 13.5195 2.38043 12.9947C2.6071 12.4699 2.93873 11.997 3.35492 11.6051L9.88325 5.35678C10.3865 4.88133 11.0526 4.61644 11.7449 4.61644C12.4372 4.61644 13.1033 4.88133 13.6066 5.35678C13.8544 5.59064 14.0519 5.87266 14.1869 6.18555C14.3218 6.49844 14.3914 6.83561 14.3914 7.17637C14.3914 7.51713 14.3218 7.85429 14.1869 8.16718C14.0519 8.48008 13.8544 8.7621 13.6066 8.99595L7.03158 15.291C6.97227 15.3477 6.90235 15.3923 6.82582 15.4221C6.74928 15.4519 6.66763 15.4663 6.58553 15.4645C6.50343 15.4627 6.42248 15.4448 6.34731 15.4117C6.27214 15.3786 6.20421 15.3311 6.14742 15.2718C6.09062 15.2125 6.04606 15.1425 6.01629 15.066C5.98651 14.9895 5.9721 14.9078 5.97388 14.8257C5.97566 14.7436 5.9936 14.6627 6.02666 14.5875C6.05972 14.5123 6.10727 14.4444 6.16658 14.3876L12.7416 8.09345C12.8675 7.97624 12.9679 7.83436 13.0365 7.67665C13.1051 7.51894 13.1406 7.34878 13.1406 7.17678C13.1406 7.00478 13.1051 6.83463 13.0365 6.67692C12.9679 6.51921 12.8675 6.37733 12.7416 6.26012C12.471 6.00746 12.1147 5.86693 11.7445 5.86693C11.3743 5.86693 11.018 6.00746 10.7474 6.26012L4.21908 12.5085C3.92489 12.7836 3.69035 13.1163 3.53 13.4859C3.36965 13.8554 3.28691 14.2539 3.28691 14.6568C3.28691 15.0596 3.36965 15.4582 3.53 15.8277C3.69035 16.1973 3.92489 16.5299 4.21908 16.8051C5.47742 18.0093 7.52908 18.0093 8.78742 16.8051L15.4108 10.4651C17.3641 8.59512 17.3641 5.57512 15.4108 3.70512C13.4416 1.82095 10.2391 1.82095 8.26908 3.70512L2.93325 8.81345C2.81357 8.92827 2.65318 8.99084 2.48737 8.9874C2.32156 8.98396 2.1639 8.9148 2.04908 8.79512C1.93427 8.67544 1.8717 8.51505 1.87513 8.34924C1.87857 8.18342 1.94774 8.02577 2.06742 7.91095L7.40575 2.80262Z" fill="#98A2AC"/>
</svg>
