<svg width="20" height="20" viewBox="0 0 20 20" fill="none" xmlns="http://www.w3.org/2000/svg">
<path fill-rule="evenodd" clip-rule="evenodd" d="M11.7509 1.99231C12.3619 1.39356 13.1845 1.06014 14.0399 1.0645C14.8953 1.06885 15.7145 1.41065 16.3193 2.01559C16.9242 2.62053 17.2658 3.43974 17.27 4.29517C17.2742 5.1506 16.9406 5.97312 16.3418 6.58398L10.0134 12.9123C9.65677 13.269 9.43844 13.4873 9.19677 13.6765C8.9106 13.8994 8.601 14.0906 8.27344 14.2465C7.9951 14.379 7.7026 14.4765 7.22427 14.6356L4.9976 15.3781L4.4626 15.5565C4.2279 15.6349 3.97598 15.6463 3.73513 15.5896C3.49427 15.5328 3.274 15.41 3.09902 15.2351C2.92404 15.0601 2.80128 14.8398 2.74451 14.5989C2.68773 14.3581 2.69919 14.1062 2.7776 13.8715L3.69843 11.1098C3.8576 10.6315 3.9551 10.339 4.0876 10.0606C4.2438 9.73332 4.43521 9.42399 4.65844 9.13814C4.8476 8.89564 5.0651 8.67731 5.42177 8.32148L11.7509 1.99231ZM4.9676 14.0706L4.26427 13.3656L4.87093 11.5448C5.0476 11.0148 5.12093 10.799 5.21593 10.599C5.3326 10.3531 5.47677 10.1215 5.64343 9.90731C5.7801 9.73231 5.9401 9.57064 6.3351 9.17481L11.2443 4.26648C11.4994 4.90376 11.8819 5.48225 12.3684 5.96648C12.8527 6.45272 13.4312 6.83497 14.0684 7.08981L9.15927 11.9981C8.76343 12.394 8.6026 12.554 8.4276 12.6898C8.21306 12.857 7.98117 13.0006 7.73593 13.1181C7.53593 13.2131 7.31927 13.2865 6.78927 13.4631L4.9676 14.0706ZM15.0643 6.09314C14.9359 6.06477 14.8093 6.02888 14.6851 5.98564C14.1451 5.79686 13.655 5.48799 13.2518 5.08231C12.8462 4.67893 12.5374 4.18887 12.3484 3.64898C12.3049 3.52482 12.2688 3.39821 12.2401 3.26981L12.6343 2.87648C13.0107 2.51216 13.5153 2.3104 14.0392 2.3147C14.563 2.31899 15.0642 2.529 15.4346 2.89944C15.8051 3.26988 16.0151 3.77106 16.0194 4.29492C16.0237 4.81878 15.8219 5.32335 15.4576 5.69981L15.0643 6.09314ZM2.70927 18.3331C2.70927 18.1674 2.77512 18.0084 2.89233 17.8912C3.00954 17.774 3.16851 17.7081 3.33427 17.7081H16.6676V18.9581H3.33427C3.16851 18.9581 3.00954 18.8923 2.89233 18.7751C2.77512 18.6579 2.70927 18.4989 2.70927 18.3331Z" fill="#6D7884"/>
</svg>
