<svg width="14" height="14" viewBox="0 0 14 14" fill="none" xmlns="http://www.w3.org/2000/svg">
<g clip-path="url(#clip0_98_339)">
<path fill-rule="evenodd" clip-rule="evenodd" d="M5.33321 1.45531C5.41006 1.37856 5.51423 1.33545 5.62284 1.33545C5.73145 1.33545 5.83562 1.37856 5.91247 1.45531L7.00541 2.54825C7.06265 2.60557 7.10163 2.67857 7.11741 2.75802C7.1332 2.83748 7.12508 2.91983 7.09409 2.99468C7.0631 3.06952 7.01062 3.13351 6.94329 3.17855C6.87596 3.22359 6.79679 3.24766 6.71578 3.24773H5.62284C4.71701 3.24773 3.84828 3.60757 3.20776 4.24809C2.56724 4.88861 2.2074 5.75734 2.2074 6.66317C2.2074 7.569 2.56724 8.43773 3.20776 9.07825C3.84828 9.71877 4.71701 10.0786 5.62284 10.0786H5.89607C6.00477 10.0786 6.10902 10.1218 6.18588 10.1986C6.26274 10.2755 6.30593 10.3798 6.30593 10.4885C6.30593 10.5972 6.26274 10.7014 6.18588 10.7783C6.10902 10.8551 6.00477 10.8983 5.89607 10.8983H5.62284C4.49961 10.8983 3.42238 10.4521 2.62814 9.65787C1.8339 8.86362 1.3877 7.7864 1.3877 6.66317C1.3877 5.53994 1.8339 4.46272 2.62814 3.66847C3.42238 2.87423 4.49961 2.42803 5.62284 2.42803H5.72667L5.33321 2.03457C5.25646 1.95772 5.21335 1.85355 5.21335 1.74494C5.21335 1.63633 5.25646 1.53216 5.33321 1.45531ZM8.21857 2.83788C8.21857 2.72918 8.26175 2.62493 8.33861 2.54807C8.41548 2.47121 8.51972 2.42803 8.62842 2.42803H8.90166C10.0249 2.42803 11.1021 2.87423 11.8964 3.66847C12.6906 4.46272 13.1368 5.53994 13.1368 6.66317C13.1368 7.7864 12.6906 8.86362 11.8964 9.65787C11.1021 10.4521 10.0249 10.8983 8.90166 10.8983H8.79783L9.19129 11.2918C9.23155 11.3293 9.26385 11.3745 9.28625 11.4248C9.30865 11.4751 9.3207 11.5294 9.32167 11.5844C9.32264 11.6394 9.31252 11.6941 9.2919 11.7451C9.27129 11.7962 9.24061 11.8425 9.20169 11.8814C9.16277 11.9204 9.11641 11.951 9.06538 11.9716C9.01435 11.9923 8.95968 12.0024 8.90465 12.0014C8.84962 12.0004 8.79535 11.9884 8.74507 11.966C8.6948 11.9436 8.64955 11.9113 8.61203 11.871L7.51909 10.7781C7.46184 10.7208 7.42287 10.6478 7.40708 10.5683C7.3913 10.4889 7.39941 10.4065 7.4304 10.3317C7.46139 10.2568 7.51387 10.1928 7.5812 10.1478C7.64854 10.1028 7.72771 10.0787 7.80872 10.0786H8.90166C9.80749 10.0786 10.6762 9.71877 11.3167 9.07825C11.9573 8.43773 12.3171 7.569 12.3171 6.66317C12.3171 5.75734 11.9573 4.88861 11.3167 4.24809C10.6762 3.60757 9.80749 3.24773 8.90166 3.24773H8.62842C8.51972 3.24773 8.41548 3.20455 8.33861 3.12769C8.26175 3.05083 8.21857 2.94658 8.21857 2.83788Z" fill="#98A2AC"/>
</g>
<defs>
<clipPath id="clip0_98_339">
<rect width="13.1153" height="13.1153" fill="white" transform="translate(0.704102 0.105469)"/>
</clipPath>
</defs>
</svg>
