<svg width="22" height="22" viewBox="0 0 22 22" fill="none" xmlns="http://www.w3.org/2000/svg">
<path d="M8.79489 3.61167C8.87739 3.11483 9.30823 2.75 9.81239 2.75H12.1893C12.6935 2.75 13.1243 3.11483 13.2068 3.61167L13.4021 4.78592C13.4598 5.12875 13.689 5.41475 13.9933 5.58342C14.0611 5.62008 14.1281 5.6595 14.195 5.69983C14.4929 5.8795 14.855 5.93542 15.1804 5.8135L16.296 5.3955C16.5246 5.30952 16.7763 5.30748 17.0063 5.38974C17.2363 5.47199 17.4296 5.63321 17.5518 5.84467L18.7398 7.90442C18.8618 8.1159 18.9048 8.36379 18.8611 8.60399C18.8175 8.84418 18.69 9.06111 18.5015 9.21617L17.5821 9.97425C17.3135 10.1952 17.1806 10.5362 17.1879 10.8836C17.1892 10.9615 17.1892 11.0394 17.1879 11.1173C17.1806 11.4638 17.3135 11.8048 17.5821 12.0258L18.5024 12.7838C18.8911 13.1047 18.9919 13.6593 18.7407 14.0947L17.5509 16.1544C17.4288 16.3658 17.2357 16.5271 17.0059 16.6095C16.7762 16.6919 16.5246 16.6902 16.296 16.6045L15.1804 16.1865C14.855 16.0646 14.4929 16.1205 14.1941 16.3002C14.1276 16.3406 14.0604 16.3797 13.9924 16.4175C13.689 16.5853 13.4598 16.8712 13.4021 17.2141L13.2068 18.3883C13.1243 18.8861 12.6935 19.25 12.1893 19.25H9.81147C9.30731 19.25 8.87739 18.8852 8.79398 18.3883L8.59873 17.2141C8.54189 16.8712 8.31272 16.5853 8.00839 16.4166C7.94042 16.3791 7.87318 16.3403 7.80672 16.3002C7.50881 16.1205 7.14673 16.0646 6.82039 16.1865L5.70481 16.6045C5.47631 16.6902 5.22481 16.6921 4.99503 16.6099C4.76526 16.5277 4.57209 16.3666 4.44989 16.1553L3.26098 14.0956C3.13901 13.8841 3.09602 13.6362 3.13966 13.396C3.1833 13.1558 3.31074 12.9389 3.49931 12.7838L4.41964 12.0258C4.68731 11.8058 4.82023 11.4638 4.81381 11.1173C4.81238 11.0394 4.81238 10.9615 4.81381 10.8836C4.82023 10.5353 4.68731 10.1952 4.41964 9.97425L3.49931 9.21617C3.31097 9.06115 3.18368 8.8444 3.14004 8.6044C3.09641 8.36441 3.13925 8.11672 3.26098 7.90533L4.44989 5.84558C4.57198 5.63396 4.76524 5.47255 4.99523 5.39012C5.22522 5.3077 5.47701 5.3096 5.70573 5.3955L6.82039 5.8135C7.14673 5.93542 7.50881 5.8795 7.80672 5.69983C7.87272 5.6595 7.94056 5.621 8.00839 5.5825C8.31272 5.41475 8.54189 5.12875 8.59873 4.78592L8.79489 3.61167Z" stroke="#6D7884" stroke-width="1.5" stroke-linecap="round" stroke-linejoin="round"/>
<path d="M13.75 11C13.75 11.7293 13.4603 12.4288 12.9445 12.9445C12.4288 13.4603 11.7293 13.75 11 13.75C10.2707 13.75 9.57118 13.4603 9.05546 12.9445C8.53973 12.4288 8.25 11.7293 8.25 11C8.25 10.2707 8.53973 9.57118 9.05546 9.05546C9.57118 8.53973 10.2707 8.25 11 8.25C11.7293 8.25 12.4288 8.53973 12.9445 9.05546C13.4603 9.57118 13.75 10.2707 13.75 11Z" stroke="#6D7884" stroke-width="1.5" stroke-linecap="round" stroke-linejoin="round"/>
</svg>
